<svg width="26" height="26" viewBox="0 0 24 24" fill="#181717">
  <path d="M12 .297a12 12 0 0 0-3.79 23.4c.6.11.82-.26.82-.58v-2.1c-3.34.73-4.04-1.61-4.04-1.61-.55-1.39-1.34-1.76-1.34-1.76-1.1-.75.08-.73.08-.73 1.22.09 1.86 1.27 1.86 1.27 1.08 1.86 2.82 1.32 3.51 1.01.11-.79.42-1.32.76-1.62-2.67-.3-5.47-1.34-5.47-5.95 0-1.31.47-2.38 1.24-3.22-.13-.3-.54-1.51.12-3.15 0 0 1.01-.32 3.3 1.23a11.4 11.4 0 0 1 6 0c2.29-1.55 3.3-1.23 3.3-1.23.66 1.64.25 2.85.12 3.15.77.84 1.24 1.91 1.24 3.22 0 4.62-2.8 5.65-5.48 5.95.43.37.81 1.1.81 2.22v3.29c0 .32.22.69.82.58A12 12 0 0 0 12 .297z"/>
</svg>
